<?xml version='1.0' encoding='utf-8'?>
<svg xmlns:xlink="http://www.w3.org/1999/xlink" xmlns="http://www.w3.org/2000/svg" opacity=".99" viewBox="0 0 660.5 524.39"> <defs> <filter id="ac"> <feGaussianBlur stdDeviation="4.89594"/> </filter> <filter id="ab"> <feGaussianBlur stdDeviation="4.72005"/> </filter> <filter id="q"> <feGaussianBlur stdDeviation="3.68158"/> </filter> <filter id="d"> <feGaussianBlur stdDeviation="1.03313"/> </filter> <filter id="aa" x="-.12815" y="-.07675" width="1.2563" height="1.1535"> <feGaussianBlur stdDeviation="6.02793"/> </filter> <filter id="z" x="-.16796" y="-.06721" width="1.3359" height="1.1344"> <feGaussianBlur stdDeviation=".98635"/> </filter> <filter id="y" x="-.14265" y="-.07234" width="1.2853" height="1.1447"> <feGaussianBlur stdDeviation="3.53429"/> </filter> <filter id="x" x="-.15348" y="-.06984" width="1.307" height="1.1397"> <feGaussianBlur stdDeviation="6.71099"/> </filter> <filter id="w" x="-.12212" y="-.07908" width="1.2442" height="1.1582"> <feGaussianBlur stdDeviation="2.1969"/> </filter> <filter id="v" x="-.08344" y="-.11301" width="1.1669" height="1.226"> <feGaussianBlur stdDeviation="4.07268"/> </filter> <filter id="u" x="-.10721" y="-.08691" width="1.2144" height="1.1738"> <feGaussianBlur stdDeviation="2.48948"/> </filter> <filter id="t" x="-.25005" y="-.0594" width="1.5001" height="1.1188"> <feGaussianBlur stdDeviation="3.64141"/> </filter> <filter id="s" x="-.18185" y="-.03593" width="1.3637" height="1.0718"> <feGaussianBlur stdDeviation="2.19494"/> </filter> <filter id="r" x="-.07012" y="-.15215" width="1.1402" height="1.3043"> <feGaussianBlur stdDeviation="3.39951"/> </filter> <filter id="p" x="-.13363" y="-.07491" width="1.2673" height="1.1498"> <feGaussianBlur stdDeviation="5.26883"/> </filter> <filter id="o" x="-.21863" y="-.0615" width="1.4373" height="1.123"> <feGaussianBlur stdDeviation="4.54788"/> </filter> <filter id="n" x="-.12171" y="-.07926" width="1.2434" height="1.1585"> <feGaussianBlur stdDeviation="4.27495"/> </filter> <filter id="m" x="-.61919" y="-.05203" width="2.2384" height="1.1041"> <feGaussianBlur stdDeviation="4.155"/> </filter> <filter id="l" x="-.22797" y="-.0608" width="1.4559" height="1.1216"> <feGaussianBlur stdDeviation="2.92249"/> </filter> <filter id="k" x="-.10699" y="-.04169" width="1.214" height="1.0834"> <feGaussianBlur stdDeviation="2.62743"/> </filter> <filter id="j" x="-.09567" y="-.16093" width="1.1913" height="1.3219"> <feGaussianBlur stdDeviation="3.58953"/> </filter> <filter id="i" x="-.13661" y="-.10699" width="1.2732" height="1.214"> <feGaussianBlur stdDeviation="2.27361"/> </filter> <filter id="h" x="-.12862" y="-.07658" width="1.2572" height="1.1532"> <feGaussianBlur stdDeviation="2.01934"/> </filter> <filter id="g" x="-.1029" y="-.08997" width="1.2058" height="1.1799"> <feGaussianBlur stdDeviation="3.40783"/> </filter> <filter id="f" x="-.13171" y="-.07552" width="1.2634" height="1.151"> <feGaussianBlur stdDeviation="5.12451"/> </filter> <filter id="e" x="-.20737" y="-.06246" width="1.4147" height="1.1249"> <feGaussianBlur stdDeviation="4.55274"/> </filter> <linearGradient id="a"> <stop stop-color="#f8fdff" offset="0"/> <stop stop-color="#000502" offset="1"/> </linearGradient> <radialGradient id="c" cx="351" cy="388.24" r="20.851" gradientTransform="scale(1.1282 .88636)" gradientUnits="userSpaceOnUse" xlink:href="#a"/> <radialGradient id="b" cx="396.22" cy="345.93" r="22.87" gradientUnits="userSpaceOnUse" xlink:href="#a"/> </defs> <path d="m168.11 49.495c22.16-12.829 57.149-33.822 72.31-36.155s24.107-11.036 48.985-12.83c29.967-3.3271 33.823-2.3324 54.816-1.1661s46.723 4.8074 73.548 19.969 47.321 26.754 47.321 27.92-27.565 3.4276-42.727 5.7602-16.328 15.162-11.663 33.822c4.665 18.661 11.663 16.329 22.16 36.156s26.825 41.986 30.324 62.98 8.164 47.818 8.164 78.142 0.811 75.952-2.688 89.948-27.636 22.017-46.297 41.844-29.157 18.66-33.822 39.654-3.756 39.965-11.92 45.796-14.253 20.918-38.231 13.685c-10.497-1.166-16.261 1.174-33.823 9.02-17.987 6.688-23.326 9.641-50.151 11.974-26.825 2.332-53.795 0.25-58.315-2.333-3.644-2.083-27.991-16.328-38.488-18.661s-16.328 4.665-19.827-2.332-18.661-37.322-18.661-52.484 1.167-25.659 6.998-43.153 5.832-45.486 5.832-57.149-12.831-34.989-16.329-52.483c-3.499-17.495-6.997-41.987-6.997-59.481 0-17.495 3.499-53.65 8.164-67.646s6.998-36.155 19.827-54.816 27.991-54.816 31.49-55.982z" fill="#787878" fill-rule="evenodd" opacity=".99"/> <g transform="translate(-41.348 -30.295)"> <path d="m499.41 335.33s-12.58 10.064-13.838 18.87c-1.257 8.805 2.516 16.353 2.516 16.353l11.322-35.223z" fill="#545454" fill-rule="evenodd" filter="url(#z)"/> <path transform="translate(-3.1032 -8.3658)" d="m286.919,423.768c9.856,19.712-.732,44.242-.732,44.242l5.113,22.56c3.362,14.837 23.723,29.13 28.25,35.919-30.213,4.234-76.362-13.653-76.362-13.653l-16.798,7.959c-9.196,3.577-26.645,7.447-36.936,5.914-1.095,0 .875-19.639.875-19.639l-5.766-28.91-7.082-22.267 109.438-32.125z" fill="#4c4c4c" fill-rule="evenodd" filter="url(#q)" opacity=".85317"/> <path transform="translate(.87782 -11.927)" d="m180.95 103.52c1.484-3.8701 19.521-10.759 28.983-12.184 1.579-0.2378-0.588 4.9324-4.665 12.83-6.916 13.395-9.33 16.328-19.827 31.49s-27.991 67.645-27.991 72.31-3.499 20.993-3.499 20.993-0.728-41.503 6.269-64.829 10.751-31.058 15.047-45.795l5.683-14.815z" fill="#7a7a7a" fill-rule="evenodd" opacity=".99"/> <path transform="translate(1.3266 -10.044)" d="m309.232,526.379c-5.78-3.613-25.288-15.173-31.068-28.178s-7.225-10.114-10.837-24.565c-3.613-2.167.722-.722-13.728,8.67s-30.345,9.393-38.293,9.393-13.005-4.335-19.507-7.225 0,7.225-.723,10.115c13.728,13.727 13.728,13.005 27.455,16.617 12.282-5.057 21.28-3.565 32.513.001 12.309,3.671 28.9,7.946 33.235,8.669 4.335.722 20.23,6.503 20.953,6.503z" fill="#2a2a2a" fill-rule="evenodd" filter="url(#r)" opacity=".99"/> <path transform="translate(1.1737 1.1737)" d="m254.695,163.863c18.782-1.105 28.169-1.174 29.343,10.563s-9.391,38.732-10.564,55.164 1.174,34.038 1.174,55.165-7.042,29.343-9.389,39.906 7.042,2.348 14.084-5.868 0-11.737 16.432-7.043c16.432,4.695 16.432,12.911 28.169,16.432s10.564,17.606-5.868,10.564-23.882-7.617-34.038,0c-15.258,9.389-24.648,12.911-10.564,21.127 14.085,8.216 35.212,10.563 23.475,18.779s-28.169,12.91-30.517,14.084-33.1.703-33.1.703l-18.543-1.877c-13.707-1.387-3.521,4.696-18.779,7.043-15.533,2.588-23.474,4.695-16.432-12.911s5.543-18.431 10.238-33.689c4.695-15.259 7.715-22.799 12.736-40.081 5.26-15.96 7.542-22.474 14.585-35.385s0,25.822 3.521,37.559 26.996,4.694 28.169-11.738 6.587-28.157 7.042-42.253c.72-22.289-8.216-36.385-5.869-51.643s3.524-44.532 4.695-44.601z" fill="#6b6b6b" fill-rule="evenodd" filter="url(#ac)" opacity=".99"/> <g transform="translate(2.5986 -8.1282)" fill-rule="evenodd" font-size="12"> <path transform="translate(0 -3.0518e-5)" d="m182.26 470.13c10.965 17.165 18.968 19.793 37.111 21.03s29.357-1.848 43.297-18.555c15.761-18.423 20.679-34.669 20.618-52.781-0.052-15.718-49.086-22.814-71.749-21.855-20.193 1.267-38.774 10.526-40.411 37.524-0.412 13.607 1.65 19.38 11.134 34.637z" fill="#181518"/> <path d="m189.993,406.684c13.194-2.411 3.432,1.979 19.296,1.979 8.411.495 9.879-8.199 27.213-6.927 15.202,1.152 18.342,6.761 30.18,16.823 9.896,8.905 6.432,11.38-3.463,13.359-9.896,1.979-5.442-4.947-21.275-4.453-15.833.495-17.317,5.937-25.234,11.38-4.241,3.11-13.359,8.905-23.254,2.968-8.214-5.338-16.078-2.767-15.833-14.348 .765-12.794 5.379-19.998 12.37-20.781z" fill="#4c4e4e" filter="url(#d)"/> <path d="m239.47 466.55c5.64 3.388 11.092 1.582 15.339 0 7.235-3.539 7.421-7.421 10.39-13.853s-5.938 6.431-12.865 8.905-19.054-2.015-16.822 0.495l3.958 4.453z" fill="#4a4a4a"/> </g> <path transform="translate(-2.863 -2.7364)" d="m177.41 152.18-14.236 30.663s-9.856 43.805-10.952 52.565c-1.095 8.761 1.095-21.902 15.332-36.138 14.237-19.712 38.329-3.286 32.853-16.427 1.096-0.548-16.973 4.928-22.038-2.601s2.874-28.062-0.959-28.062z" fill="#737373" fill-rule="evenodd"/> <path transform="translate(4.3354 -4.6038)" d="m189.296,529.269c13.728-7.225 34.238-5.987 41.181-10.115 14.234-9.184 17.342-4.335 17.342-4.335 0,2.89 44.073,12.283 56.355,13.005s15.173,5.78 33.236,0 23.12-13.728 33.957-18.785 18.785-2.89 26.733-7.225c7.947-4.335 13.005-10.838 13.005-10.838s-3.613,9.393-9.393,13.005-2.89,3.612-8.67,8.67 .723-2.167-23.12,1.445c-12.215,1.797-18.785,13.006-28.177,15.173s-17.341,5.78-41.906-.723c-14.963-4.4-40.46,3.613-52.743.723s-18.062-2.889-28.899-4.334c-10.838-1.446-28.901,5.779-28.901,4.334z" fill-rule="evenodd"/> <path transform="translate(0 -3.0518e-5)" d="m377.53 178.14c21.553-1.658 29.554 0.954 49.574 16.207s27.238 30.438 29.35 44.739c1.089 14.291 3.471 23.491-10.83 33.025s-30.913 24.245-38.54 38.545-17.503 33.505-7.969 44.945 13.069 18.383 20.222 30.644c5.647 8.875 4.702 6.673-4.831 15.253s-8.354 8.077-16.751 3.878c-7.481-4.259-4.903-11.646-11.576-29.759s-13.89-17.636-12.937-38.609 3.335-26.352 11.915-37.792 34.321-19.068 40.994-24.788 10.487-1.906 15.254-14.3 4.415-23.962-3.814-35.752c-5.879-7.693-14.989-13.636-25.603-14.643l-27.237-2.586-30.101 11.034s-5.721-8.58 0.953-20.021 18.692-19.771 21.927-20.02z" fill="#8c8c8c" fill-rule="evenodd" filter="url(#x)" opacity=".99"/> <path d="m383.74 211.36c25.924 2.721 51.699 20.38 53.889 30.236s2.106 13.721-1.925 19.827c-4.554 6.256-12.426 8.461-21.187 12.842s-13.856 6.57-22.617 8.761-15.182 2.755-14.087 11.516-6.766-1.893-19.446-10.917c-5.357-4.108-8.401-6.921-17.108-7.85-14.262-1.565-16.875-0.565-17.671-5.741-1.376-8.225-4.461-4.414 4.3-18.65 8.346-10.918 6.797-9.689 13.072-22.664 4.512-9.03 5.897-14.826 12.496-15.182 13.028 0.116 15.186-2.225 27.493-2.225" fill="#515151" fill-rule="evenodd" filter="url(#v)" opacity=".99"/> <g fill-rule="evenodd" font-size="12" opacity=".99"> <path transform="translate(3.159 -5.3786)" d="m345.351,260.231c-.019,5.39 1.466,22.192 43.54,20.781 31.647-1.062 46.377-14.339 46.508-26.718 .142-12.858-25.727-27.213-53.93-26.718-25.788.905-36.08,21.055-36.118,32.655z" fill="#222" filter="url(#j)"/> <path transform="matrix(1.0796 0 0 1.0796 -33.489 -127.59)" d="m373.147,348.52c-.013-5.606 2.71-8.172 7.581-12.281 4.341-3.661 7.767-5.397 15.746-5.333 5.083.042 17.179,4.556 21.137,5.902 3.105,1.615 12.026,1.702 8.417,11.811-6.428,17.264-18.985,14.98-27.55,15.179-11.319,0-24.532-2.223-25.331-15.278z" fill="#464647"/> <path transform="matrix(1.0796 0 0 1.0796 -33.489 -127.59)" d="m419.83 344.8c9e-3 11.212-8.82 19.259-20.032 19.259-11.213 0.017-22.163-6.962-22.172-18.174-0.013-5.606 0.138-3.979 3.106-9.649 5.191-2.626 7.767-5.397 15.746-5.333 5.083 0.042 16.916 4.819 20.874 6.165 2.261 3.757 1.412 2.324 2.478 7.667v0.065z" fill="url(#c)"/> <path transform="matrix(1.15 0 0 1.0976 -56.161 -30.538)" d="m401.62 248.42a9.2327 9.4635 0 1 1-18.465 0 9.2327 9.4635 0 1 1 18.465 0z" fill="#000400" stroke="#060800" stroke-width="1.25"/> <path transform="matrix(.43112 0 0 .43903 230.36 130.06)" d="m401.62 248.42a9.2327 9.4635 0 1 1-18.465 0 9.2327 9.4635 0 1 1 18.465 0z" fill="#fffdfd" stroke="#060800" stroke-width="1.25"/> </g> <path transform="translate(-3.7253e-7 3.0653)" d="m219.827,267.085c-.405-7.493-8.491-15.725-13.208-22.014-3.661-4.637-2.831-11.322-10.693-17.297s-10.692-7.233-17.611-6.919c-6.919.315-9.75,1.258-11.322,6.604s-2.516,13.209-2.201,19.499 2.706,20.027 5.346,25.473c2.391,4.932 6.241,10.533 11.007,12.266 7.325,2.548 21.072,1.412 22.958-2.831 2.515-5.975 1.258-11.951 2.83-15.41s3.46-.629 4.718,3.774 .943,8.491.314,13.523-.314,9.749 3.145.629 5.482-15.001 5.346-15.41l-.629-1.887z" fill="#3c3c3c" fill-opacity=".90722" fill-rule="evenodd" filter="url(#u)" opacity=".99"/> <g fill-rule="evenodd" font-size="12" opacity=".99"> <path transform="translate(97.946 8.2222)" d="m81.929 272.05c12.462 6.894 19.811 4.255 21.741 1.062 10.356-17.399 4.773-24.924 1.856-33.673-4.242-11.931-14.052-13.258-21.476-14.053-6.0983 0.265-14.633 3.137-14.318 15.113 0.5303 10.076 1.3257 23.068 12.196 31.551z" fill="#212121" filter="url(#i)"/> <path transform="matrix(1.0796 0 0 1.0796 -236.84 -120.34)" d="m396.211,331.432c5.083.024 9.108,2.823 10.607,6.692 2.15,4.869 2.646,10.922 2.363,14.443-.918,8.152-4.518,11.967-13.072,11.494-5.265-.263-11.178-6.82-12.187-13.188l-1.071-6.754c-.185-1.173.116-12.488 13.36-12.687z" fill="#474747"/> <path transform="matrix(.76234 0 0 .98209 -110.7 -87.472)" d="m412.931,345.995c3.093,7.059-1.925,18.067-13.137,18.067-11.213.017-22.163-6.962-22.172-18.174-.013-5.606.138-3.979 3.106-9.649 5.191-2.626 7.767-5.397 15.746-5.333 5.083.042 11.72,4.282 12.768,6.672l3.689,8.417z" fill="url(#b)"/> <path transform="matrix(1.075 0 0 1.0976 -229.04 -21.748)" d="m401.62 248.42a9.2327 9.4635 0 1 1-18.465 0 9.2327 9.4635 0 1 1 18.465 0z" fill="#000400" stroke="#060800" stroke-width="1.25"/> <path transform="matrix(.43112 0 0 .43903 29.3 138.98)" d="m401.62 248.42a9.2327 9.4635 0 1 1-18.465 0 9.2327 9.4635 0 1 1 18.465 0z" fill="#fffdfd" stroke="#060800" stroke-width="1.25"/> </g> <g transform="matrix(.11329 0 0 .11329 658.28 492.74)" fill-opacity=".48276" opacity=".99"> <path d="m-409.17-283.34c47.422 28.503 96.203 59.174 95.613 78.308-1.294 41.273-90.965 37.812-150.93-1.3487-53.66-33.948-73.966-78.62-72.24-104.92 0.841-35.051 45.538-19.441 127.56 27.962z" stroke="#2c1c21" stroke-opacity=".90588" stroke-width="1.925"/> <path d="m100.64-57.151" fill-rule="evenodd" stroke="#000" stroke-width="1.25"/> <path d="m-525.97 155.5c2.0618-231.93 480.38-501.49 601.11-503 18.241 0.50629 32.275 30.828 13.033 40.125-52.058 26.913-76.976 33.864-150.67 77.284-112.01 67.254-333.13 251.25-337.34 358.77-0.4252 10.789-15.921 86.183 141.9 83.649 82.506-1.3145 178.6-33.174 214.99-84.35 46.759-63.719 19.867-105.37-53.52-125.35-31.245-8.3407-22.974-44.725-2.704-46.278 33.85-4.6935 155.47 12.524 153.05 124.77-3.3108 156.02-256.93 217.97-353.78 216.71 0 0-225.93 12.867-226.08-142.33z" fill-rule="evenodd" stroke="#2c1c21" stroke-opacity=".90588" stroke-width="1.925"/> <path d="m469.22 303.25" fill-rule="evenodd" stroke="#2c1c21" stroke-opacity=".90588" stroke-width="1.925"/> <path d="m662.94 341.62h-1.2579 1.2579z" fill-rule="evenodd" stroke="#2c1c21" stroke-opacity=".90588" stroke-width="1.925"/> </g> <path d="m466.52 329.59s-9.856 15.332-14.237 30.663-2.19 17.522-15.331 25.188-12.046 7.666 0 14.236 13.141 6.571 12.046 19.712-3.285 13.142-10.951 25.188-15.332 7.666-15.332 16.427 4.381 16.426-1.095 27.377c-5.475 10.952-5.475 15.332-13.141 22.998s-1.095 10.951 7.666-2.19 12.046-24.093 14.236-35.044 7.666-10.951 17.522-25.188 14.236-14.236 26.283-30.663 14.236-4.38 28.472-21.902 15.332-24.093 15.332-24.093-2.19-1.095-20.807 5.476-13.141 9.856-26.283 3.285-13.141-12.046-12.046-22.997 5.476-27.378 7.666-28.473z" fill="#666" fill-rule="evenodd" filter="url(#aa)" opacity=".99"/> <g transform="translate(-3.8199 -.84433)" fill-rule="evenodd" opacity=".99"> <path d="m583.09 199.79c-1.549 1.549-28.652 8.518-35.621 29.426s3.872 45.687 1.549 67.369-6.195 34.846-7.744 57.303-2.323 35.62-3.097 43.364c-0.775 7.744-1.549 17.036-0.775 17.81 0.775 0.775 7.744-32.523 11.616-45.687s11.615-36.395 21.682-42.59 30.2-7.744 37.169-10.067 22.457-6.194 13.939-19.359-25.554-5.42-29.426-18.584-5.42-34.072-4.646-46.462-6.195-31.749-4.646-32.523z" fill="#6e6e6e" opacity=".99"/> <path d="m583.094,144.037c.774,0 14.713,48.01 14.713,48.01s4.646,40.267 6.194,39.493c1.549-.775-1.548-18.585 10.067-17.811 11.616.775 18.585,3.872 18.585,3.872s-10.841-12.39-9.293-24.779 18.585-19.359 2.324-27.103-43.365-21.682-42.59-21.682z" fill="#5f5f5f" opacity=".82098"/> </g> <path d="m532.3 76.393c-1.173 0-9.274-2.81-33.922-0.4625s-37.401-2.426-45.617 8.1374-4.695 34.038 2.347 43.427 35.29 51.486 43.506 71.439 14.163 102.27 10.642 138.66-1.331 36.385 1.016 56.338 4.695 45.774 14.085 55.164 18.779 12.911 25.821 8.216 2.348-22.3 8.216-42.254 18.78-36.385 23.475-39.906 34.037-15.258 44.601-24.648 32.864-30.516 41.08-41.079c8.215-10.564 30.516-53.991 34.037-70.423s-30.516-53.991-36.385-63.38-49.296-26.996-52.817-35.212-72.77-62.206-73.944-62.206l-6.141-1.8063z" fill="#686868" fill-rule="evenodd" opacity=".9801"/> <path d="m529.82 233.54c4.38 36.139 8.761 76.658 7.665 78.848s-5.475 28.473-8.76 40.52-4.381 39.424-1.096 51.47c3.286 12.046 6.571 20.807 6.571 20.807s-3.285-12.046-1.095-35.044 1.095-38.329 5.476-56.945 3.285-35.044 2.19-45.995-9.856-53.661-10.951-53.661z" fill="#575757" fill-rule="evenodd" filter="url(#m)" opacity=".9801"/> <path d="m551.73 425.19c0-1.095-6.571-19.712-4.381-38.329s9.856-38.329 16.427-44.9 15.332-4.38 32.853-17.521 26.283-7.666 32.854-27.378 12.046-40.519 12.046-40.519-2.19 44.899-10.951 58.041-20.807 19.712-38.329 33.948-26.283 26.283-30.663 42.709-10.951 36.139-9.856 33.949z" fill="#515151" fill-rule="evenodd" filter="url(#p)" opacity=".9801"/> <path d="m493.69 110.89s15.331 7.666 17.521 19.712 0 27.378 1.096 38.329 7.665 30.663 9.856 39.424 2.19 17.522 2.19 17.522-1.095-18.617-2.19-31.759-6.571-19.712-5.476-35.043 1.095-35.044-7.666-41.614-16.426-7.666-15.331-6.571z" fill="#515051" fill-rule="evenodd" filter="url(#l)" opacity=".9801"/> <path d="m552.61 104.61s8.803 9.39 18.192 29.343 9.39 20.54 14.672 46.949 9.389 45.187 10.563 61.033c1.174 15.845 1.761 14.084 0.587 30.516s5.282 9.39 5.868-2.934-5.281-52.23-5.281-52.23-5.869-35.212-9.977-45.188-9.976-35.798-18.192-48.122-15.259-18.193-16.432-19.367z" fill="#545454" fill-rule="evenodd" filter="url(#o)" opacity=".9801"/> <path d="m529.13 79.371c-28.169-0.5868-45.774 0.5868-58.685 3.5211s-18.193 5.2817-18.78 11.15 0.587 13.498 5.282 19.953 19.366 20.54 27.582 33.451 8.803 17.019 17.606 35.798 11.15 33.451 11.15 20.54-4.108-21.714-7.629-40.493 2.348-26.995-3.521-36.972-4.694-7.043-14.084-16.432c7.629 1.76 8.802 0.587 15.258-1.761 18.779-5.281 22.887-11.15 29.929-14.671s-2.347-12.324-4.108-14.085z" fill="#757575" fill-rule="evenodd" filter="url(#n)" opacity=".9801"/> <path d="m690.78 245.41s-11.616 30.974-18.585 42.59-37.169 37.169-46.462 43.364c-9.292 6.195-20.133 12.39-32.523 21.682s-24.005 20.908-24.005 20.908 18.585-10.067 31.749-17.036 27.877-15.487 38.718-24.78 16.261-9.292 24.779-22.456 18.585-26.328 21.682-37.944c3.098-11.615 3.872-24.779 4.647-26.328z" fill="#717171" fill-rule="evenodd" opacity=".9801"/> <path d="m447.72 99.533 1.109 19.351s1.533 4.598 7.153 12.261 9.707 10.729 14.305 19.414 16.859 28.61 19.924 35.251c3.066 6.642 5.62 11.24 9.196 22.99s5.62 32.697 6.131 39.85 0.51099-5.109 1.022-14.816-1.022-20.946-4.087-28.099-4.598-14.816-10.729-26.055-13.283-18.903-15.327-25.545-7.152-13.283-13.283-20.946-10.367-9.046-12.411-17.731-0.923-8.489-3.003-15.925z" fill="#3f3f3f" fill-rule="evenodd" filter="url(#k)" opacity=".99"/> <path d="m153.76 254.59v29.343s4.695 26.995 8.216 37.558 8.216 21.127 10.563 36.385 1.175 34.038 1.175 42.254 8.215-17.606 12.91-31.69c4.695-15.258 0-21.127 0-37.559s-1.174-14.084-5.868-28.169c-4.695-14.084-19.954-26.995-19.954-28.169s-4.694-18.779-7.042-19.953z" fill="#575757" fill-rule="evenodd" filter="url(#t)" opacity=".99"/> <path d="m171.37 93.48c-21.436 6.029-32.154 14.067-36.843 22.105s-1.339 10.718-11.387 26.795-41.532 52.249-56.269 71.005c-12.727 11.388-20.766 16.747-24.115 24.785s-0.6698 44.211 7.3685 66.316 28.804 52.25 41.531 62.967 46.221 32.154 48.9 35.503 2.68-10.718-0.669-32.154-10.048-42.201-12.058-60.957 7.023-32.823 7.693-48.9-2.508-57.284-0.498-70.012 0.843-35.156 10.221-49.893 28.804-46.89 26.125-47.56z" fill="#706f70" fill-rule="evenodd" opacity=".99"/> <path d="m167.78 100.39c-14.737 30.814-32.58 48.021-33.92 72.136-1.339 24.115 0.67 56.268-2.679 79.713-1.339 22.775-6.698 36.843-3.349 63.637 3.349 26.795 13.398 54.11 13.398 75.024 0 32.154-0.671 62.298-1.341 77.705 2.68 10.717 23.446-13.397 24.786-24.115 2.009-14.067 12.057-28.135 10.717-64.307 0.67-32.153-2.612-24.15-8.674-43.541-6.029-18.086-10.752-36.842-12.761-60.287-2.01-23.446-2.01-37.444 1.339-59.55s7.369-57.007 12.058-76.433 17.901-41.345 12.542-45.365-8.831-1.079-8.831-1.749l-3.285 7.132z" fill="#696969" fill-rule="evenodd" opacity=".99"/> <path d="m65.373 224.43c-12.829 19.827-19.827 45.486-19.827 45.486s0 13.995 9.3304 31.49c9.3303 17.494 23.326 43.153 34.989 52.483s19.827 8.164 36.155 22.16 16.328 16.328 4.665-1.167c-11.663-17.494-22.16-16.328-37.322-40.82s-17.494-30.324-20.993-53.65-6.9978-55.982-6.9978-55.982z" fill="#5c5c5c" fill-rule="evenodd" filter="url(#f)" opacity=".99"/> <path d="m152.85 98.802c-16.329 30.324-22.16 29.158-36.156 57.149-13.995 27.991-17.494 32.656-16.328 59.481 1.1668 26.825 2.3328 58.315 2.3328 58.315s5.831 0 5.831-16.328 2.333-24.492 1.167-44.319-3.499-22.16 10.496-43.153 16.328-34.989 20.994-45.486 10.496-22.16 11.663-25.659z" fill="#5e5e5e" fill-rule="evenodd" filter="url(#e)" opacity=".99"/> <path transform="matrix(.948 0 0 .95891 8.6304 13.549)" d="m160.163,329.723c-.318-.636 6.673,17.161 5.72,32.414s-2.86,40.041-4.767,60.061 2.86,20.974-3.813,34.321-12.394,17.16-18.114,19.067 .954.953 6.674-12.393 5.72-21.928 4.767-30.508 .952-16.207 2.859-30.508 0-15.253-1.906-31.46 .953-14.3 3.813-11.44 5.72-2.86 3.813-11.44 1.59-16.843.954-18.114z" fill="#3d3d3d" fill-rule="evenodd" filter="url(#s)" opacity=".99"/> <path transform="translate(0 -3.0518e-5)" d="m505.268,375.668c-3.371,3.37-2.612,16.341-12.468,20.722s-17.521,9.856-29.568,24.092-22.997,22.998-28.472,33.949-7.666,22.997-10.952,32.853-.252,13.984-10.951,25.188c-12.046,9.856-12.046,15.331-26.282,12.046-14.237-3.285-9.856-3.285-33.949,5.476s-31.758,15.331-40.519,6.57-4.381,5.476-25.188,7.666-31.758,0-51.47-7.666-53.743-21.479-36.221-8.337 30.746,19.288 47.172,21.479 37.234,6.57 49.28,4.38 12.047-10.951 14.237-10.951 0,4.38 18.617,0 27.377-7.666 36.138-10.951 21.903-2.19 27.378-2.19 17.522-1.095 25.188-12.047 15.331-31.758 17.522-43.804 4.73-13.921 15.692-27.75c12.046-9.856 12.78-20.435 27.017-28.101s11.625-9.264 22.323-17.436c9.35-10.194 11.137-5.696 9.115-25.414l-2.289-.627-1.35.853z" fill="#474747" fill-rule="evenodd" opacity=".99"/> <path d="m462.93 243.5s10.064 0 10.064 11.322 0 21.385-6.29 26.417-20.127 2.515-22.643 12.579-5.032 16.353-5.032 16.353-6.289-2.515-8.805-5.031 7.547-16.354 7.547-16.354 12.58-7.547 20.128-16.353 5.031-26.417 5.031-28.933z" fill="#6c6c6c" fill-opacity=".92784" fill-rule="evenodd" filter="url(#w)"/> <path d="m353.48 371.81-12.58 20.127s6.29 31.449 2.516 32.707c-2.516-17.611 5.032 13.837-2.516 16.353l27.675-3.774 20.127 7.548-5.032 30.191s2.516 16.354 6.29 13.838 0-15.096 0-18.87 2.516-10.063 5.032-20.127 12.579-26.417-3.774-27.675-21.385-6.29-22.643-7.547-17.611-41.513-15.095-42.771z" fill="#666" fill-rule="evenodd" filter="url(#y)"/> <path d="m306.94 142.86c0-1.258 7.548-7.548 27.675-3.774s26.417 15.095 37.739 17.611 15.095 8.806 13.837 8.806-16.353 8.806-22.643 17.611c-6.29 8.806-10.063 25.159-15.095 30.191s-15.096 31.449-11.322 1.258 7.548-33.965-5.032-44.028-22.643-26.417-25.159-27.675z" fill="#6e6e6e" fill-rule="evenodd" filter="url(#g)"/> <path transform="translate(1.25 -5)" d="m482.5 68.611s-26.25-17.5-45-22.5-31.25-10-48.75-10-32.5-2.5-52.5 1.25-43.75 8.75-53.75 12.5-30 7.5-46.25 18.75-12.5 30-5 33.75 28.75 7.5 31.25 21.25 5 26.25 7.5 30 10 1.25 16.25-10 5-23.75 15-23.75 5 1.25 25 1.25 56.25 3.75 65-12.5 5-25 20-28.75 28.75 0 41.25-1.25 28.75-8.75 30-10z" fill="#6c6c6c" fill-rule="evenodd" filter="url(#ab)" opacity=".99"/> <path transform="matrix(.79115 0 0 .87237 59.389 59.424)" d="m303.76 476.8a4.5647 3.7347 0 1 1-9.1293 0 4.5647 3.7347 0 1 1 9.1293 0z" fill="#444" fill-rule="evenodd"/> <path transform="matrix(.79115 0 0 .87237 72.736 52.274)" d="m303.76 476.8a4.5647 3.7347 0 1 1-9.1293 0 4.5647 3.7347 0 1 1 9.1293 0z" fill="#444" fill-rule="evenodd"/> <path transform="matrix(.79115 0 0 .87237 85.13 46.315)" d="m303.76 476.8a4.5647 3.7347 0 1 1-9.1293 0 4.5647 3.7347 0 1 1 9.1293 0z" fill="#444" fill-rule="evenodd"/> <path transform="matrix(.79115 0 0 .87237 98 38.927)" d="m303.76 476.8a4.5647 3.7347 0 1 1-9.1293 0 4.5647 3.7347 0 1 1 9.1293 0z" fill="#444" fill-rule="evenodd"/> <path transform="matrix(.79115 0 0 .87237 112.3 33.445)" d="m303.76 476.8a4.5647 3.7347 0 1 1-9.1293 0 4.5647 3.7347 0 1 1 9.1293 0z" fill="#444" fill-rule="evenodd"/> <path transform="matrix(.79115 0 0 .87237 72.259 71.579)" d="m303.76 476.8a4.5647 3.7347 0 1 1-9.1293 0 4.5647 3.7347 0 1 1 9.1293 0z" fill="#444" fill-rule="evenodd"/> <path transform="matrix(.79115 0 0 .87237 85.13 66.574)" d="m303.76 476.8a4.5647 3.7347 0 1 1-9.1293 0 4.5647 3.7347 0 1 1 9.1293 0z" fill="#444" fill-rule="evenodd"/> <path transform="matrix(.79115 0 0 .87237 100.38 60.377)" d="m303.76 476.8a4.5647 3.7347 0 1 1-9.1293 0 4.5647 3.7347 0 1 1 9.1293 0z" fill="#444" fill-rule="evenodd"/> <path transform="matrix(.79115 0 0 .87237 113.73 53.704)" d="m303.76 476.8a4.5647 3.7347 0 1 1-9.1293 0 4.5647 3.7347 0 1 1 9.1293 0z" fill="#444" fill-rule="evenodd"/> <path transform="matrix(.79115 0 0 .87237 97.523 82.543)" d="m303.76 476.8a4.5647 3.7347 0 1 1-9.1293 0 4.5647 3.7347 0 1 1 9.1293 0z" fill="#444" fill-rule="evenodd"/> <path transform="matrix(.79115 0 0 .87237 110.87 74.916)" d="m303.76 476.8a4.5647 3.7347 0 1 1-9.1293 0 4.5647 3.7347 0 1 1 9.1293 0z" fill="#444" fill-rule="evenodd"/> <path transform="matrix(.79115 0 0 .87237 123.5 66.813)" d="m303.76 476.8a4.5647 3.7347 0 1 1-9.1293 0 4.5647 3.7347 0 1 1 9.1293 0z" fill="#444" fill-rule="evenodd"/> <path transform="matrix(.79115 0 0 .87237 127.32 47.446)" d="m303.76 476.8a4.5647 3.7347 0 1 1-9.1293 0 4.5647 3.7347 0 1 1 9.1293 0z" fill="#444" fill-rule="evenodd"/> <path d="m212.42 289.4c-8.67 28.9-18.785 54.911-20.23 62.136s11.56-21.675 17.34-28.901c5.78-7.225 20.23-14.45 20.23-14.45s-14.45-1.445-15.895-5.78-1.445-13.005-1.445-13.005z" fill="#616161" fill-rule="evenodd" filter="url(#h)"/> </g> </svg>